<?xml version="1.0" encoding="utf-8"?>
<!-- Generator: Adobe Illustrator 22.0.1, SVG Export Plug-In . SVG Version: 6.00 Build 0)  -->
<svg version="1.1" id="Layer_1" xmlns="http://www.w3.org/2000/svg" xmlns:xlink="http://www.w3.org/1999/xlink" x="0px" y="0px"
	 viewBox="0 0 500 229.6" style="enable-background:new 0 0 500 229.6;" xml:space="preserve">
<style type="text/css">
	.st0{fill:#FF914C;}
</style>
<g>
	<path class="st0" d="M119.6,67.7v60.4c0,0,0,16-18.4,16s-18.4-16-18.4-16V67.7H60.6v58.2c0,39.3,40.5,36.4,40.5,36.4
		s40.5,2.9,40.5-36.4V67.7H119.6z"/>
	<polygon points="180,142.9 180,67.7 157.9,67.7 157.9,161.3 214,161.3 214,142.9 	"/>
	<polygon points="223.5,161.3 223.5,67.7 245.7,67.7 245.7,142.9 245.7,161.3 	"/>
	<polygon points="320.9,67.7 320.9,125.7 287.8,67.7 262.7,67.7 262.7,161.3 284.8,161.3 284.8,142.9 284.5,104.2 318,161.3 
		320.9,161.3 343.1,161.3 343.1,142.9 343.1,67.7 	"/>
	<path d="M400.6,112.8c-0.4-0.5-0.4-1.2,0-1.7l37.6-43.4H411l-28.8,33.4V67.7h-22.1v93.6h22.1v-18.4v-10.3l2.6-3.2
		c0.5-0.6,1.5-0.6,2.1,0l24.1,31.9h28L400.6,112.8z"/>
</g>
</svg>
