<?xml version="1.0" encoding="utf-8"?>
<!-- Generator: Adobe Illustrator 22.0.1, SVG Export Plug-In . SVG Version: 6.00 Build 0)  -->
<svg version="1.1" id="Layer_1" xmlns="http://www.w3.org/2000/svg" xmlns:xlink="http://www.w3.org/1999/xlink" x="0px" y="0px"
	 viewBox="0 0 500 500" style="enable-background:new 0 0 500 500;" xml:space="preserve">
<style type="text/css">
	.st0{fill:#FF914C;}
	.st1{fill:#FFFFFF;}
</style>
<g>
	<path class="st0" d="M126.3,206.4l-0.1,63.7c-1.2,18.9-20.4,19.1-20.4,19.1s-19.2-0.2-20.4-19.1l-0.1-63.7H61.9v66.5
		c0,0,0.5,35.9,43.8,35.9s43.8-35.9,43.8-35.9v-66.5H126.3z"/>
	<polygon class="st1" points="190.7,285.5 190.7,206.4 167.3,206.4 167.3,308.8 184.1,308.8 190.7,308.8 227.4,308.8 227.4,285.5 	
		"/>
	<rect x="238.3" y="206.4" class="st1" width="23.3" height="102.4"/>
	<polygon class="st1" points="341.9,206.4 341.9,269.1 305.8,206.4 301.8,206.4 299.3,206.4 278.5,206.4 278.5,308.8 301.8,308.8 
		301.8,245.2 338.9,308.8 341.9,308.8 346.6,308.8 365.2,308.8 365.2,206.4 	"/>
	<polygon class="st1" points="425.2,252.9 465.8,205.6 436.7,205.6 405.2,241.4 405.2,241.2 405.2,206.4 381.9,206.4 381.9,308.8 
		405.2,308.8 405.2,275.9 409.9,270.9 437.6,308.8 467,308.8 	"/>
</g>
</svg>
